<?xml version="1.0" standalone="no"?><!DOCTYPE svg PUBLIC "-//W3C//DTD SVG 1.1//EN" "http://www.w3.org/Graphics/SVG/1.1/DTD/svg11.dtd"><svg t="1528443541695" class="icon" style="" viewBox="0 0 1024 1024" version="1.1" xmlns="http://www.w3.org/2000/svg" p-id="1450" xmlns:xlink="http://www.w3.org/1999/xlink" width="32" height="32"><defs><style type="text/css"></style></defs><path d="M890.463 610.958c-17.673 0-32 14.327-32 32v157.693c0 17.136-13.941 31.077-31.077 31.077H196.614c-17.136 0-31.077-13.941-31.077-31.077V642.958c0-17.673-14.327-32-32-32-17.673 0-32 14.327-32 32v157.693c0 52.426 42.651 95.077 95.077 95.077h630.771c52.426 0 95.077-42.651 95.077-95.077V642.958c0.001-17.673-14.326-32-31.999-32z" fill="" p-id="1451"></path><path d="M349.005 473.662h51.574v192.471c0 34.694 28.385 63.077 63.077 63.077h101.426c34.692 0 63.077-28.384 63.077-63.077V473.662h46.834c24.278 0 39.45-26.283 27.311-47.308L539.311 144.043c-12.139-21.028-42.484-21.028-54.627 0l-162.99 282.311c-12.139 21.024 3.034 47.308 27.311 47.308z" fill="" p-id="1452"></path></svg>