<?xml version="1.0" standalone="no"?><!DOCTYPE svg PUBLIC "-//W3C//DTD SVG 1.1//EN" "http://www.w3.org/Graphics/SVG/1.1/DTD/svg11.dtd"><svg t="1526698967736" class="icon" style="" viewBox="0 0 1024 1024" version="1.1" xmlns="http://www.w3.org/2000/svg" p-id="622" xmlns:xlink="http://www.w3.org/1999/xlink" width="32" height="32"><defs><style type="text/css"></style></defs><path d="M836.249919 515.624551c-15.829524 0-28.677133 12.847609-28.677133 28.677132v367.409905H104.986099V209.124901h370.320187c15.829524 0 28.677133-12.847609 28.677133-28.677133s-12.847609-28.677133-28.677133-28.677132H88.167039c-15.829524 0-40.535205 18.22406-40.535205 34.067909v759.941976c0 15.829524 24.691355 23.285333 40.535205 23.285332H848.110037c15.829524 0 16.833387-7.455809 16.833387-23.285332V544.301683c-0.016373-15.84385-12.848633-28.677133-28.693505-28.677132z" fill="#1E191B" p-id="623"></path><path d="M960.565249 202.428386L838.917678 80.752162c-10.753925-10.753925-25.350364-16.804734-40.563858-16.804734S768.558214 69.983911 757.804289 80.752162L263.641539 574.900585a57.219189 57.219189 0 0 0-14.223956 23.544229l-50.801013 163.516144a57.350173 57.350173 0 0 0 12.96222 56.264445 57.362452 57.362452 0 0 0 41.811268 18.10945c4.502547 0 9.033747-0.530073 13.520944-1.605567l172.463934-41.839921a57.345056 57.345056 0 0 0 27.028586-15.199167l494.134097-494.148423c22.410406-22.397103 22.410406-58.70196 0.02763-81.113389z m-253.476016 10.123568l20.274766 20.289092-384.545166 384.558469-20.289092-20.289092 384.559492-384.558469z m40.549532 40.562834l40.563858 40.563858L403.657456 678.238139l-40.563857-40.563858 384.545166-384.559493zM253.389034 778.966261l16.231683-52.264341 38.885636 38.885636-55.117319 13.378705z m87.766926-21.292956l-61.914118-61.885465 24.031323-77.371159 90.23207 90.232071v0.014326l0.014327 0.014327 29.221532 29.221532-81.585134 19.774368z m103.051028-38.885635l-20.274766-20.274766 384.558469-384.559492 20.274766 20.274765-384.558469 384.559493zM849.040223 313.953412L727.378325 192.291514l70.975495-70.975494 121.647571 121.676223-70.961168 70.961169z" fill="#1E191B" p-id="624"></path></svg>